<svg width="175" height="40" viewBox="0 0 175 40" fill="none" xmlns="http://www.w3.org/2000/svg">
<path d="M20.9801 38.2998V36.3908C24.2106 35.9017 24.4867 35.247 23.611 32.849C23.0627 31.2161 22.2423 28.9246 21.4219 26.6922H10.9022C10.2988 28.3803 9.58877 30.3445 8.93006 32.5216C8.16485 35.1366 8.27135 35.8978 12.2709 36.3908V38.2998H0L0.0552212 36.3908C3.67221 35.9569 4.32698 35.3574 6.1335 30.7783L17.3631 2.77513L20.1557 2.06519C23.6623 11.5981 27.0584 21.0798 30.6162 30.451C32.478 35.247 33.1919 35.953 36.6432 36.3908V38.2998H20.9801ZM16.3218 12.0398H16.1561C14.6257 16.0155 13.257 19.9399 11.8331 23.8091H20.3766L16.3218 12.0398Z" fill="#050605"/>
<path d="M43.8654 19.2884C45.8376 15.9122 47.9755 13.5694 49.9989 13.5694C52.1881 13.5694 53.6672 15.0958 53.6672 16.9456C53.6672 18.9058 52.4602 20.4322 50.985 20.9765C50.2198 21.2486 49.6715 21.0869 49.2889 20.7595C48.3581 19.9983 47.6994 19.6157 46.7685 19.6157C45.7272 19.6157 44.6306 20.3257 43.6998 22.4476V32.58C43.6998 35.9562 44.0271 36.1771 48.2476 36.5557V38.299H33.2354V36.5557C36.1936 36.2283 36.7419 35.9562 36.7419 32.58V20.7043C36.7419 17.9277 36.3041 17.7068 33.7836 17.1073V15.5809C37.0693 15.1471 40.3037 14.5476 43.6998 13.5103V19.2884H43.8654Z" fill="#050605"/>
<path d="M64.6247 38.3563C63.6386 38.7389 62.7629 38.9558 62.3803 38.9558C58.1638 38.9558 55.6986 36.9956 55.6986 32.0891V16.8333H52.2473L51.9751 16.1786L53.5095 14.2183H55.7025V10.2427L61.8912 5.99487L62.6565 6.32223V14.2223H68.0247C68.6835 14.8218 68.573 16.4034 67.6974 16.8372H62.6565V30.2906C62.6565 34.5384 64.6286 35.0314 65.7804 35.0314C66.7113 35.0314 67.5869 34.8145 68.5178 34.3767L69.0661 36.2817L64.6247 38.3563Z" fill="#050605"/>
<path d="M70.1157 38.2999V36.5566C73.2909 36.1741 73.6223 35.9571 73.6223 32.088V21.3008C73.6223 17.7038 73.2397 17.5421 70.6088 17.1043V15.5227C73.8944 15.1401 77.5114 14.4341 80.5762 13.5625V32.088C80.5762 35.8467 80.8484 36.1188 84.138 36.5566V38.2999H70.1157ZM72.7979 6.31713C72.7979 4.13604 74.6044 2.50317 76.687 2.50317C78.8762 2.50317 80.5762 4.13604 80.5762 6.31713C80.5762 8.38779 78.8801 10.1311 76.6318 10.1311C74.6044 10.1311 72.7979 8.38779 72.7979 6.31713Z" fill="#050605"/>
<path d="M103.753 33.0712C101.232 36.613 97.6745 38.9558 94.3297 38.9558C86.8236 38.9558 82.4453 33.2882 82.4453 27.3523C82.4453 23.3766 84.4727 19.5074 87.9793 16.9477C91.541 14.3327 95.1541 13.5715 97.2919 13.5715C99.2641 13.5715 101.071 14.171 102.002 14.9323C102.767 15.4765 102.988 16.1313 102.988 16.8925C102.988 18.4741 101.564 19.89 100.633 19.89C100.25 19.89 99.9228 19.7283 99.4298 19.2905C97.1302 17.3303 95.4302 16.4586 93.8958 16.4586C91.7028 16.4586 89.2927 18.5293 89.2927 24.3587C89.2927 31.604 94.4954 34.002 96.8502 34.002C99.1497 34.002 100.739 33.4578 102.712 31.7697L103.753 33.0712Z" fill="#050605"/>
<path d="M103.413 38.3013V36.558C106.644 36.0689 106.975 35.7968 106.975 32.3102V7.35577C106.975 4.0861 106.703 3.92439 103.689 3.54181V1.96022C106.813 1.57765 110.864 0.871649 113.933 0V32.3102C113.933 35.9624 114.26 36.1794 117.601 36.558V38.3013H103.413Z" fill="#050605"/>
<path d="M137.087 32.9096C133.746 37.8673 129.474 38.9559 127.226 38.9559C119.941 38.9559 115.886 33.5603 115.886 27.2971C115.886 23.1558 117.637 19.6692 119.941 17.4368C122.351 15.0388 125.364 13.5676 128.378 13.5676C133.418 13.5676 137.308 17.8707 137.252 22.3393C137.252 23.4279 136.925 24.1379 135.663 24.2996C134.677 24.41 127.995 24.9543 122.627 25.1712C122.899 31.0006 126.133 33.9429 130.022 33.9429C132.16 33.9429 134.184 33.233 136.105 31.6001L137.087 32.9096ZM122.899 22.6115C125.143 22.5563 127.171 22.501 129.419 22.4498C130.239 22.3946 130.515 22.2881 130.571 21.3612C130.571 18.5845 129.364 15.7487 127.23 15.7487C125.147 15.7448 123.23 18.2532 122.899 22.6115Z" fill="#050605"/>
<path d="M175 16.9445C171.604 17.3271 170.452 18.0331 168.48 20.5928C166.946 22.4978 165.577 24.5685 163.881 26.9665C167.387 30.3426 170.783 34.5392 173.355 38.4084L173.028 39.0631C167.604 39.0631 164.319 37.8089 163.605 37.1029C162.895 36.3929 161.305 34.5431 159.278 32.579C155.882 36.9924 152.375 39.0631 148.707 39.0631C141.256 39.0631 137.26 33.6163 137.26 28.9307C137.26 24.3555 140.053 22.3913 144.928 19.0152C142.739 16.8893 141.26 14.4913 141.26 11.2768C141.26 6.42949 145.808 2.17773 151.227 2.17773C156.706 2.17773 160.54 5.55389 160.54 10.0778C160.54 11.9828 159.664 13.3475 158.185 14.5465C157.089 15.5286 155.554 16.6171 153.803 17.7609C155.393 19.1216 158.513 21.847 162.346 25.3888C163.277 23.9729 164.153 22.4465 165.029 20.7032C166.125 18.25 165.739 17.4888 162.015 16.9445V15.0908H174.996V16.9445H175ZM157.854 30.9461C153.799 26.86 151.006 24.462 146.352 20.4311C144.873 22.0127 144.052 24.3003 144.052 26.4222C144.052 31.6521 147.669 34.1053 151.338 34.1053C153.803 34.1053 156.43 32.6342 157.854 30.9461ZM147.011 9.09965C147.011 11.7698 148.49 13.6236 152.213 16.5106C153.637 15.3116 154.951 13.1345 154.951 9.80959C154.951 6.97772 153.527 4.25234 150.734 4.25234C148.596 4.24839 147.011 6.53992 147.011 9.09965Z" fill="#050605"/>
</svg>
